<?xml version="1.0" encoding="utf-8"?>
<!-- Generator: Adobe Illustrator 16.0.0, SVG Export Plug-In . SVG Version: 6.00 Build 0)  -->
<!DOCTYPE svg PUBLIC "-//W3C//DTD SVG 1.1//EN" "http://www.w3.org/Graphics/SVG/1.1/DTD/svg11.dtd">
<svg version="1.1" id="Layer_1" xmlns="http://www.w3.org/2000/svg" xmlns:xlink="http://www.w3.org/1999/xlink" x="0px" y="0px"
	 width="720px" height="360px" viewBox="0 0 720 360" enable-background="new 0 0 720 360" xml:space="preserve">
<g>
	<path fill="#2E3192" d="M191.734,130.023v23.541h-39.235v54.933h39.235v23.54h-39.067c0,0-23.71,1.095-23.71-19.869
		c0-23.869,0-8.334,0-8.334v-39.958c0,0,0-11.754,0-17.564c0-16.936,18.043-16.288,18.043-16.288H191.734z M191.734,192.8h-31.388
		v-23.541h31.388V192.8z"/>
	<path fill="#2E3192" d="M254.5,130.288c0,0,7.767,2.087,7.8,8.15c0.058,10.563,0.058,15.126,0.058,15.126h-70.625v-23.541
		L254.5,130.288"/>
	<rect x="215.276" y="161.412" fill="#2E3192" width="23.542" height="70.625"/>
	<path fill="#2E3192" d="M586.057,171.926l-21.58-41.903h25.897l8.631,16.715L586.057,171.926z M591.94,183.306l-1.174-2.276
		l26.287-51.006h25.895l-27.465,53.283v48.73H591.94V183.306z"/>
	<path fill="#2E3192" d="M262.358,140.583"/>
	<path fill="#2E3192" d="M560.553,130.023v23.541h-39.235v54.933h39.235v23.54h-39.067c0,0-23.71,1.095-23.71-19.869
		c0-23.869,0-8.334,0-8.334v-39.958c0,0,0-11.754,0-17.564c0-16.936,18.043-16.288,18.043-16.288H560.553z M560.553,192.8h-31.389
		v-23.541h31.389V192.8z"/>
	<path fill="#2E3192" d="M332.734,130.023v23.541h-39.235v54.933h39.235v23.54h-39.067c0,0-23.71,1.095-23.71-19.869
		c0-23.869,0-8.334,0-8.334v-39.958c0,0,0-11.754,0-17.564c0-16.936,18.043-16.288,18.043-16.288H332.734z M332.734,192.8h-31.389
		v-23.541h31.389V192.8z"/>
	<path fill="#2E3192" d="M5.505,130.008h24.517l29.073,102.151H34.579L5.505,130.008z M72.611,161.438l20.116,70.721H68.289
		l-20.115-70.721H72.611z M85.891,175.74l12.965-45.732h24.517l-25.224,88.714L85.891,175.74z"/>
</g>
<path d="M152.667,232.036"/>
<path d="M128.957,204.833"/>
<g>
	<path fill="#00AEEF" d="M441.445,196.68c-1.771,0.015-3.333,0.028-4.92,0.04c-0.019-3.063-0.039-6.208-0.058-9.32
		c-5.825,0.048-11.538,0.094-17.166,0.14v31.919c0,0-0.045-0.044,0.094,5.5c0.208,8.292,9.396,7.245,9.396,7.245h14.053v-40.102
		c-0.516,0.005-1.027,0.01-1.549,0.015C441.346,193.627,441.396,195.188,441.445,196.68z"/>
	<path fill="#00AEEF" d="M442.845,130.023h-10.032c0,0-13.559-0.689-13.559,7.186c0,8.75,0.048,6.416,0.048,6.416v30.844
		c7.833-0.063,15.69-0.126,23.543-0.189V130.023z"/>
	<path fill="#2E3192" d="M493.852,130.023h-25.896l-17.262,33.508v10.686c2.09-0.017,4.187-0.034,6.271-0.051
		c0.034,4.191,0.07,8.423,0.105,12.707c-1.432-0.007-2.996-0.015-4.553-0.021c0.027,3.303,0.055,6.447,0.079,9.475
		c-0.646,0.005-1.272,0.011-1.903,0.016v17.412L493.852,130.023z"/>
	<polygon fill="#2E3192" points="459.324,215.322 467.955,232.036 493.852,232.036 472.272,190.133 	"/>
	<path fill="#00AEEF" d="M407.559,187.296c-1.977,0.017-3.786,0.014-5.593,0.072c-0.172,0.005-0.408,0.361-0.491,0.6
		c-1.404,4.103-3.824,7.479-7.203,10.188c-6.883,5.516-17.18,6.103-24.65,1.384c-10.497-6.628-13.453-19.982-6.725-30.408
		c0.418-0.647,0.875-1.27,1.313-1.903c0.862-0.876,1.724-1.753,2.586-2.628c1.405-0.914,2.749-1.946,4.226-2.721
		c8.725-4.578,19.496-2.567,26.038,4.772c2.038,2.287,3.52,4.879,4.484,7.755c1.932-0.037,3.844-0.074,5.833-0.11
		c-0.046-1.449-0.095-2.994-0.141-4.437c1.493-0.012,2.883-0.022,4.22-0.034v-8.416c0-20.925-10.462-31.389-31.388-31.389h-7.849
		c-20.926,0-31.388,10.463-31.388,31.389v39.236c0,20.928,10.462,31.389,31.388,31.389h7.849c20.926,0,31.388-10.461,31.388-31.389
		v-0.001V192.8v-0.915c-1.248,0.012-2.567,0.022-3.976,0.036C407.506,190.517,407.531,188.951,407.559,187.296z"/>
</g>
<path d="M420.375,134.438"/>
<g>
	<path fill="none" d="M664.412,161.412c0,5.232,2.616,7.848,7.848,7.848h3.461l3.579-15.696h-7.04
		C667.028,153.563,664.412,156.181,664.412,161.412z"/>
	<path fill="none" d="M680.108,208.496c5.23,0,7.847-2.617,7.847-7.849c0-5.232-2.616-7.848-7.847-7.848h-0.523l-3.578,15.696
		H680.108z"/>
	<path fill="#2E3192" d="M664.412,200.647h-23.54c0,17.03,6.929,27.128,20.786,30.299l5.431-23.82
		C665.309,205.854,664.412,203.698,664.412,200.647z"/>
	<path fill="#2E3192" d="M687.955,161.412h23.541c0-15.853-6.011-25.696-18.021-29.539l-5.978,26.222
		C687.8,159.05,687.955,160.153,687.955,161.412z"/>
	<path fill="#2E3192" d="M672.26,169.259c-5.231,0-7.848-2.616-7.848-7.848c0-5.231,2.616-7.848,7.848-7.848h7.04l5.324-23.357
		c-1.449-0.117-2.949-0.183-4.516-0.183h-7.849c-20.926,0-31.388,10.463-31.388,31.389c0,20.284,9.829,30.735,29.489,31.358
		l5.359-23.51H672.26z"/>
	<path fill="#2E3192" d="M684.904,169.466l-5.319,23.333h0.523c5.23,0,7.847,2.615,7.847,7.848c0,5.231-2.616,7.849-7.847,7.849
		h-4.102l-5.36,23.515c0.531,0.014,1.066,0.025,1.613,0.025h7.849c20.925,0,31.388-10.461,31.388-31.389
		C711.496,181.391,702.627,171.001,684.904,169.466z"/>
</g>
</svg>
